<svg width="128" height="48" viewBox="0 0 128 48" fill="none" xmlns="http://www.w3.org/2000/svg">
<path fill-rule="evenodd" clip-rule="evenodd" d="M127.24 13.7859H123.829V17.0461C123.829 17.0461 123.829 17.046 123.829 17.046L123.829 25.1906C123.829 29.5997 120.266 33.1739 115.87 33.1739C111.475 33.1739 107.912 29.5997 107.912 25.1906H107.912V14.3561H104.501V25.1626L104.501 25.1906C104.501 28.3809 105.807 31.2653 107.912 33.3352C109.962 35.3518 112.772 36.5953 115.87 36.5953C118.969 36.5953 121.778 35.3519 123.829 33.3352L123.829 36.5954C123.829 41.0045 120.266 44.5787 115.87 44.5787C111.475 44.5787 107.912 41.0045 107.912 36.5954H104.501C104.501 42.8941 109.591 48.0001 115.87 48.0001C122.149 48.0001 127.239 42.8941 127.239 36.5954L127.24 36.5954V13.7859Z" fill="white"/>
<path d="M98.4316 8.08325H101.842V36.5951H98.4316V8.08325Z" fill="white"/>
<path fill-rule="evenodd" clip-rule="evenodd" d="M95.7823 13.7859C95.7823 13.7859 95.7823 13.7859 95.7823 13.7859C92.6837 13.7859 89.8746 15.0294 87.8239 17.046V13.7859H84.4131V25.1906V36.5954H87.8239V33.3353L87.824 33.3354V25.2323C87.8239 25.2194 87.8239 25.2065 87.8239 25.1936V25.1876C87.8255 20.78 91.388 17.2073 95.7823 17.2073C95.7823 17.2073 95.7823 17.2073 95.7823 17.2073V13.7859Z" fill="white"/>
<path fill-rule="evenodd" clip-rule="evenodd" d="M78.354 25.1906C78.354 29.5997 74.7909 33.174 70.3956 33.174C66.0003 33.174 62.4371 29.5997 62.4371 25.1906C62.4371 20.7816 66.0003 17.2073 70.3956 17.2073C74.7909 17.2073 78.354 20.7816 78.354 25.1906ZM78.3542 33.3351C76.3035 35.3518 73.4943 36.5954 70.3956 36.5954C64.1165 36.5954 59.0264 31.4893 59.0264 25.1906C59.0264 18.892 64.1165 13.7859 70.3956 13.7859C76.6746 13.7859 81.7648 18.892 81.7648 25.1906L81.765 25.1906V36.5954H78.3542V33.3351Z" fill="white"/>
<path fill-rule="evenodd" clip-rule="evenodd" d="M46.5147 33.174C48.9619 33.174 51.1511 32.066 52.611 30.3228H56.6705C54.7982 34.0437 50.9535 36.5954 46.5147 36.5954C40.2357 36.5954 35.1455 31.4893 35.1455 25.1906C35.1455 18.892 40.2357 13.7859 46.5147 13.7859C52.7938 13.7859 57.8839 18.892 57.8839 25.1906C57.8839 25.7721 57.8406 26.3433 57.7569 26.9013H54.29H50.115H38.7394C39.5201 30.4883 42.7048 33.174 46.5147 33.174ZM46.5147 17.2073C42.7048 17.2073 39.5201 19.8929 38.7394 23.4799H54.29C53.5093 19.8929 50.3247 17.2073 46.5147 17.2073Z" fill="white"/>
<path d="M30.0273 8.08325H33.4381V36.5951H30.0273V8.08325Z" fill="white"/>
<path fill-rule="evenodd" clip-rule="evenodd" d="M24.5757 27.4713C22.752 30.8664 19.1752 33.1737 15.0611 33.1737C9.09604 33.1737 4.26037 28.3229 4.26037 22.3392C4.26037 16.3554 9.09604 11.5047 15.0611 11.5047C19.1752 11.5047 22.752 13.812 24.5757 17.2071H28.3239C26.27 11.8696 21.1064 8.08325 15.0611 8.08325C7.21232 8.08325 0.849609 14.4658 0.849609 22.3392C0.849609 30.2125 7.21232 36.5951 15.0611 36.5951C21.1063 36.5951 26.27 32.8088 28.3239 27.4713H24.5757ZM29.2726 22.368C29.2726 22.3584 29.2726 22.3488 29.2726 22.3392C29.2726 22.3296 29.2726 22.32 29.2726 22.3104V22.368Z" fill="white"/>
</svg>
